<svg xmlns="http://www.w3.org/2000/svg" xmlns:xlink="http://www.w3.org/1999/xlink"><symbol id="arrow-down" viewBox="0 0 12 6">
<path d="M6 6L0 0H12L6 6Z" fill="#576BCC"/>
</symbol><symbol id="bell" viewBox="0 0 18 20">
<mask id="path-1-inside-1_1_122" fill="white">
<path fill-rule="evenodd" clip-rule="evenodd" d="M2 7C2 3.13401 5.13401 0 9 0C12.866 0 16 3.13401 16 7V14H18V16H0V14H2V7ZM7 18V20H11V18H7Z"/>
</mask>
<path d="M16 14H14V16H16V14ZM18 14H20V12H18V14ZM18 16V18H20V16H18ZM0 16H-2V18H0V16ZM0 14V12H-2V14H0ZM2 14V16H4V14H2ZM7 20H5V22H7V20ZM7 18V16H5V18H7ZM11 20V22H13V20H11ZM11 18H13V16H11V18ZM9 -2C4.02944 -2 0 2.02944 0 7H4C4 4.23858 6.23858 2 9 2V-2ZM18 7C18 2.02944 13.9706 -2 9 -2V2C11.7614 2 14 4.23858 14 7H18ZM18 14V7H14V14H18ZM18 12H16V16H18V12ZM20 16V14H16V16H20ZM0 18H18V14H0V18ZM-2 14V16H2V14H-2ZM2 12H0V16H2V12ZM0 7V14H4V7H0ZM9 20V18H5V20H9ZM11 18H7V22H11V18ZM9 18V20H13V18H9ZM7 20H11V16H7V20Z" fill="#B4BEF0" mask="url(#path-1-inside-1_1_122)"/>
</symbol><symbol id="cabinet" viewBox="0 0 20 20">
<path fill-rule="evenodd" clip-rule="evenodd" d="M3 1C1.89543 1 1 1.89543 1 3V6C1 7.10457 1.89543 8 3 8H6C7.10457 8 8 7.10457 8 6V3C8 1.89543 7.10457 1 6 1H3ZM3 12C1.89543 12 1 12.8954 1 14V17C1 18.1046 1.89543 19 3 19H6C7.10457 19 8 18.1046 8 17V14C8 12.8954 7.10457 12 6 12H3ZM12 3C12 1.89543 12.8954 1 14 1H17C18.1046 1 19 1.89543 19 3V6C19 7.10457 18.1046 8 17 8H14C12.8954 8 12 7.10457 12 6V3ZM14 12C12.8954 12 12 12.8954 12 14V17C12 18.1046 12.8954 19 14 19H17C18.1046 19 19 18.1046 19 17V14C19 12.8954 18.1046 12 17 12H14Z"/>
<path d="M2 3C2 2.44772 2.44772 2 3 2V0C1.34315 0 0 1.34315 0 3H2ZM2 6V3H0V6H2ZM3 7C2.44772 7 2 6.55228 2 6H0C0 7.65685 1.34315 9 3 9V7ZM6 7H3V9H6V7ZM7 6C7 6.55228 6.55228 7 6 7V9C7.65685 9 9 7.65685 9 6H7ZM7 3V6H9V3H7ZM6 2C6.55228 2 7 2.44772 7 3H9C9 1.34315 7.65685 0 6 0V2ZM3 2H6V0H3V2ZM2 14C2 13.4477 2.44772 13 3 13V11C1.34315 11 0 12.3431 0 14H2ZM2 17V14H0V17H2ZM3 18C2.44772 18 2 17.5523 2 17H0C0 18.6569 1.34315 20 3 20V18ZM6 18H3V20H6V18ZM7 17C7 17.5523 6.55229 18 6 18V20C7.65685 20 9 18.6569 9 17H7ZM7 14V17H9V14H7ZM6 13C6.55228 13 7 13.4477 7 14H9C9 12.3431 7.65685 11 6 11V13ZM3 13H6V11H3V13ZM14 0C12.3431 0 11 1.34315 11 3H13C13 2.44772 13.4477 2 14 2V0ZM17 0H14V2H17V0ZM20 3C20 1.34315 18.6569 0 17 0V2C17.5523 2 18 2.44772 18 3H20ZM20 6V3H18V6H20ZM17 9C18.6569 9 20 7.65685 20 6H18C18 6.55228 17.5523 7 17 7V9ZM14 9H17V7H14V9ZM11 6C11 7.65685 12.3431 9 14 9V7C13.4477 7 13 6.55228 13 6H11ZM11 3V6H13V3H11ZM13 14C13 13.4477 13.4477 13 14 13V11C12.3431 11 11 12.3431 11 14H13ZM13 17V14H11V17H13ZM14 18C13.4477 18 13 17.5523 13 17H11C11 18.6569 12.3431 20 14 20V18ZM17 18H14V20H17V18ZM18 17C18 17.5523 17.5523 18 17 18V20C18.6569 20 20 18.6569 20 17H18ZM18 14V17H20V14H18ZM17 13C17.5523 13 18 13.4477 18 14H20C20 12.3431 18.6569 11 17 11V13ZM14 13H17V11H14V13Z"/>
</symbol><symbol id="class" viewBox="0 0 20 20">
<path fill-rule="evenodd" clip-rule="evenodd" d="M9.55279 0.105573C9.83431 -0.0351909 10.1657 -0.0351909 10.4472 0.105573L19.4472 4.60557C19.786 4.77496 20 5.12123 20 5.5V12.5H18V7.11803L10.4472 10.8944C10.1657 11.0352 9.83431 11.0352 9.55279 10.8944L0.552786 6.39443C0.214002 6.22504 0 5.87877 0 5.5C0 5.12123 0.214002 4.77496 0.552786 4.60557L9.55279 0.105573ZM3.23607 5.5L10 8.88197L16.7639 5.5L10 2.11803L3.23607 5.5ZM4.47427 10.6493C4.76909 10.4671 5.13723 10.4506 5.44721 10.6056L10 12.882L14.5528 10.6056C14.8628 10.4506 15.2309 10.4671 15.5257 10.6493C15.8205 10.8316 16 11.1534 16 11.5V16.5C16 16.8788 15.786 17.225 15.4472 17.3944L10.4472 19.8944C10.1657 20.0352 9.83431 20.0352 9.55279 19.8944L4.55279 17.3944C4.214 17.225 4 16.8788 4 16.5V11.5C4 11.1534 4.17945 10.8316 4.47427 10.6493ZM6 13.118V15.882L10 17.882L14 15.882V13.118L10.4472 14.8944C10.1657 15.0352 9.83431 15.0352 9.55279 14.8944L6 13.118Z" fill="#B4BEF0"/>
</symbol><symbol id="exam" viewBox="0 0 20 20">
<path fill-rule="evenodd" clip-rule="evenodd" d="M5.29289 0.292893C5.48043 0.105357 5.73478 0 6 0H15C15.5523 0 16 0.447715 16 1V7.49816C18.349 8.47772 20 10.796 20 13.5C20 17.0899 17.0899 20 13.5 20C11.6566 20 9.9925 19.2327 8.80957 18H1C0.447715 18 0 17.5523 0 17V6C0 5.73478 0.105357 5.48043 0.292893 5.29289L5.29289 0.292893ZM14 2V7.01894C13.835 7.00639 13.6682 7 13.5 7C9.91015 7 7 9.91015 7 13.5C7 14.3859 7.17723 15.2304 7.49816 16H2V7H6C6.55228 7 7 6.55228 7 6V2H14ZM3.41421 5H5V3.41421L3.41421 5ZM13.5 9C11.0147 9 9 11.0147 9 13.5C9 15.9853 11.0147 18 13.5 18C15.9853 18 18 15.9853 18 13.5C18 11.0147 15.9853 9 13.5 9ZM13.7593 15.6508L16.7593 12.1508L15.2407 10.8492L12.8915 13.59L11.6508 12.5265L10.3492 14.045L12.3492 15.7593L13.1085 16.41L13.7593 15.6508Z" fill="#B4BEF0"/>
</symbol><symbol id="homework" viewBox="0 0 20 20">
<path fill-rule="evenodd" clip-rule="evenodd" d="M17 9H19L10 1L1 9H3V19H7V13H13V19H17V9Z" stroke="#B4BEF0" stroke-width="2" stroke-linejoin="round" fill="none"/>
</symbol><symbol id="manual" viewBox="0 0 20 20">
<path d="M1 1L1.44721 0.105573C1.13723 -0.0494214 0.769085 -0.0328574 0.474269 0.149349C0.179452 0.331556 0 0.653422 0 1L1 1ZM19 1H20C20 0.653422 19.8205 0.331556 19.5257 0.149349C19.2309 -0.0328574 18.8628 -0.0494214 18.5528 0.105573L19 1ZM19 14.5L19.4472 15.3944C19.786 15.225 20 14.8788 20 14.5H19ZM10 19L9.55279 19.8944C9.83431 20.0352 10.1657 20.0352 10.4472 19.8944L10 19ZM1 14.5H0C0 14.8788 0.214002 15.225 0.552786 15.3944L1 14.5ZM0.552786 1.89443L9.55279 6.39443L10.4472 4.60557L1.44721 0.105573L0.552786 1.89443ZM10.4472 6.39443L19.4472 1.89443L18.5528 0.105573L9.55279 4.60557L10.4472 6.39443ZM18 1V14.5H20V1H18ZM18.5528 13.6056L9.55279 18.1056L10.4472 19.8944L19.4472 15.3944L18.5528 13.6056ZM10.4472 18.1056L1.44721 13.6056L0.552786 15.3944L9.55279 19.8944L10.4472 18.1056ZM2 14.5V1H0V14.5H2ZM9 5.5V19H11V5.5H9Z" fill="#B4BEF0"/>
</symbol><symbol id="next" viewBox="0 0 12 20">
<path d="M1 1L10 10L1 19" stroke="#B4BEF0" stroke-width="2" fill="transparent"/>
</symbol><symbol id="play-small" viewBox="0 0 10 12">
<path d="M10 6L0 12L-5.24537e-07 0L10 6Z" fill="white"/>
</symbol><symbol id="play" viewBox="0 0 20 24">
<path d="M20 12L0 24L-1.04907e-06 0L20 12Z" fill="white"/>
</symbol><symbol id="previous" viewBox="0 0 12 20">
<path d="M11 1L2 10L11 19" stroke="#B4BEF0" stroke-width="2" fill="transparent"/>
</symbol><symbol id="search" viewBox="0 0 21 21">
<path fill-rule="evenodd" clip-rule="evenodd" d="M14 8C14 11.3137 11.3137 14 8 14C4.68629 14 2 11.3137 2 8C2 4.68629 4.68629 2 8 2C11.3137 2 14 4.68629 14 8ZM12.9055 14.32C11.5508 15.373 9.84865 16 8 16C3.58172 16 0 12.4183 0 8C0 3.58172 3.58172 0 8 0C12.4183 0 16 3.58172 16 8C16 9.84877 15.3729 11.5511 14.3198 12.9058L20.0011 18.5872L18.5869 20.0014L12.9055 14.32Z" fill="#B4BEF0"/>
</symbol><symbol id="settings" viewBox="0 0 20 20">
<path d="M12 1H13C13 0.447715 12.5522 0 12 0V1ZM7.99996 1V0C7.44767 0 6.99996 0.447715 6.99996 1L7.99996 1ZM12 3.28988H11C11 3.7323 11.2907 4.12213 11.7147 4.24833L12 3.28988ZM14.8093 4.91373L14.1222 5.64022C14.4435 5.94416 14.9263 6.00091 15.3093 5.77976L14.8093 4.91373ZM16.7941 3.7678L17.6602 3.2678C17.384 2.78951 16.7724 2.62564 16.2941 2.90178L16.7941 3.7678ZM18.7941 7.2319L19.2941 8.09793C19.5238 7.96532 19.6914 7.7469 19.7601 7.49072C19.8287 7.23454 19.7928 6.96159 19.6602 6.7319L18.7941 7.2319ZM16.8108 8.37697L16.3108 7.51094C15.9281 7.73192 15.7358 8.17795 15.8379 8.60796L16.8108 8.37697ZM16.8109 11.6229L15.8379 11.3919C15.7358 11.8219 15.9281 12.2679 16.3109 12.4889L16.8109 11.6229ZM18.7942 12.7679L19.6602 13.2679C19.7928 13.0383 19.8287 12.7653 19.7601 12.5091C19.6914 12.253 19.5238 12.0345 19.2942 11.9019L18.7942 12.7679ZM16.7942 16.2321L16.2942 17.0981C16.5238 17.2307 16.7968 17.2666 17.053 17.198C17.3092 17.1293 17.5276 16.9617 17.6602 16.7321L16.7942 16.2321ZM14.8094 15.0862L15.3094 14.2201C14.9264 13.999 14.4436 14.0558 14.1222 14.3597L14.8094 15.0862ZM12 16.7101L11.7147 15.7517C11.2907 15.8779 11 16.2677 11 16.7101H12ZM12 19V20C12.5522 20 13 19.5523 13 19H12ZM7.99996 19H6.99996C6.99996 19.5523 7.44767 20 7.99996 20V19ZM7.99996 16.7101H8.99996C8.99996 16.2677 8.70924 15.8779 8.28521 15.7517L7.99996 16.7101ZM5.19036 15.0861L5.87757 14.3596C5.55624 14.0556 5.07341 13.9989 4.69036 14.22L5.19036 15.0861ZM3.20569 16.2319L2.33966 16.7319C2.61581 17.2102 3.2274 17.3741 3.70569 17.0979L3.20569 16.2319ZM1.20569 12.7678L0.705689 11.9018C0.476004 12.0344 0.308406 12.2528 0.239763 12.509C0.17112 12.7652 0.207055 13.0381 0.339663 13.2678L1.20569 12.7678ZM3.18901 11.6227L3.68901 12.4888C4.07174 12.2678 4.26404 11.8218 4.16197 11.3918L3.18901 11.6227ZM3.18904 8.37713L4.162 8.6081C4.26408 8.1781 4.07178 7.73209 3.68904 7.51111L3.18904 8.37713ZM1.2057 7.23205L0.33967 6.73205C0.207062 6.96173 0.171127 7.23469 0.23977 7.49087C0.308413 7.74705 0.476011 7.96547 0.705696 8.09808L1.2057 7.23205ZM3.2057 3.76795L3.7057 2.90192C3.47601 2.76931 3.20306 2.73338 2.94688 2.80202C2.6907 2.87067 2.47228 3.03826 2.33967 3.26795L3.2057 3.76795ZM5.19046 4.91385L4.69046 5.77987C5.0735 6.00103 5.55633 5.94427 5.87765 5.64032L5.19046 4.91385ZM7.99996 3.28988L8.28521 4.24833C8.70924 4.12213 8.99996 3.7323 8.99996 3.28988H7.99996ZM12 0H7.99996V2H12V0ZM13 3.28988V1H11V3.28988H13ZM15.4965 4.18724C14.5989 3.3382 13.5035 2.694 12.2852 2.33143L11.7147 4.24833C12.6258 4.51948 13.4474 5.00196 14.1222 5.64022L15.4965 4.18724ZM16.2941 2.90178L14.3093 4.04771L15.3093 5.77976L17.2941 4.63383L16.2941 2.90178ZM19.6602 6.7319L17.6602 3.2678L15.9281 4.2678L17.9281 7.7319L19.6602 6.7319ZM17.3108 9.243L19.2941 8.09793L18.2941 6.36588L16.3108 7.51094L17.3108 9.243ZM18 10C18 9.36293 17.9253 8.74199 17.7838 8.14598L15.8379 8.60796C15.9437 9.05372 16 9.51964 16 10H18ZM17.7838 11.8539C17.9253 11.2579 18 10.637 18 10H16C16 10.4803 15.9437 10.9462 15.8379 11.3919L17.7838 11.8539ZM19.2942 11.9019L17.3109 10.7569L16.3109 12.4889L18.2942 13.634L19.2942 11.9019ZM17.6602 16.7321L19.6602 13.2679L17.9281 12.2679L15.9281 15.7321L17.6602 16.7321ZM14.3094 15.9522L16.2942 17.0981L17.2942 15.366L15.3094 14.2201L14.3094 15.9522ZM12.2852 17.6686C13.5035 17.306 14.599 16.6617 15.4966 15.8126L14.1222 14.3597C13.4475 14.998 12.6258 15.4805 11.7147 15.7517L12.2852 17.6686ZM13 19V16.7101H11V19H13ZM7.99996 20H12V18H7.99996V20ZM6.99996 16.7101V19H8.99996V16.7101H6.99996ZM4.50315 15.8125C5.4008 16.6617 6.49633 17.306 7.71471 17.6686L8.28521 15.7517C7.37404 15.4805 6.55237 14.9979 5.87757 14.3596L4.50315 15.8125ZM3.70569 17.0979L5.69036 15.9521L4.69036 14.22L2.70569 15.3659L3.70569 17.0979ZM0.339663 13.2678L2.33966 16.7319L4.07171 15.7319L2.07171 12.2678L0.339663 13.2678ZM2.68901 10.7567L0.705689 11.9018L1.70569 13.6338L3.68901 12.4888L2.68901 10.7567ZM1.99996 10C1.99996 10.637 2.07459 11.2578 2.21604 11.8537L4.16197 11.3918C4.05619 10.9461 3.99996 10.4803 3.99996 10H1.99996ZM2.21608 8.14617C2.07461 8.74213 1.99996 9.363 1.99996 10H3.99996C3.99996 9.51969 4.05619 9.05382 4.162 8.6081L2.21608 8.14617ZM0.705696 8.09808L2.68904 9.24316L3.68904 7.51111L1.7057 6.36602L0.705696 8.09808ZM2.33967 3.26795L0.33967 6.73205L2.07172 7.73205L4.07172 4.26795L2.33967 3.26795ZM5.69046 4.04782L3.7057 2.90192L2.7057 4.63397L4.69046 5.77987L5.69046 4.04782ZM7.71471 2.33143C6.49638 2.69402 5.4009 3.33827 4.50326 4.18738L5.87765 5.64032C6.55244 5.00201 7.37408 4.5195 8.28521 4.24833L7.71471 2.33143ZM6.99996 1V3.28988H8.99996V1H6.99996ZM12 10C12 11.1046 11.1046 12 10 12V14C12.2091 14 14 12.2091 14 10H12ZM10 8C11.1046 8 12 8.89543 12 10H14C14 7.79086 12.2091 6 10 6V8ZM8 10C8 8.89543 8.89543 8 10 8V6C7.79086 6 6 7.79086 6 10H8ZM10 12C8.89543 12 8 11.1046 8 10H6C6 12.2091 7.79086 14 10 14V12Z" fill="#B4BEF0"/>
</symbol></svg>